<svg width="1350" height="528" viewBox="0 0 1350 528" fill="none" xmlns="http://www.w3.org/2000/svg">
<path d="M0 348.536H74.9996C77.611 422.015 127.177 465.577 213.266 465.577C296.092 465.577 342.395 429.162 342.395 369.343C342.395 224.339 14.3445 366.74 14.3445 146.958C14.3445 61.1245 91.3045 0 208.043 0C325.432 0 407.608 65.6754 407.608 163.864H334.569C329.353 100.136 283.701 62.4227 206.09 62.4227C128.479 62.4227 85.4379 96.2341 85.4379 154.106C85.4379 289.359 414.14 154.106 414.14 369.336C414.14 460.37 341.093 528 210.661 528C84.7869 528 0 461.675 0 348.536Z" fill="#00FF00"/>
<path d="M486.521 477.932C486.521 451.924 506.739 431.766 533.475 431.766C560.211 431.766 580.429 451.924 580.429 477.932C580.429 504.589 558.909 525.404 533.475 525.404C506.732 525.404 486.521 504.596 486.521 477.932Z" fill="#00FF00"/>
<path d="M674.996 10.4002H742.82V517.593H674.996V10.4002Z" fill="#00FF00"/>
<path d="M1039.56 10.4002H1123.04L1350 517.593H1275L1217.61 388.189H945.647L887.604 517.593H812.604L1039.56 10.4002ZM1189.56 323.826L1081.3 81.2829L973.693 323.826H1189.56Z" fill="#00FF00"/>
</svg>
