<svg width="52" height="20" viewBox="0 0 52 20" fill="none" xmlns="http://www.w3.org/2000/svg">
<g clip-path="url(#clip0)">
<path d="M0 13.2021H2.84443C2.94347 15.9854 4.82329 17.6355 8.0883 17.6355C11.2296 17.6355 12.9857 16.2561 12.9857 13.9903C12.9857 8.4977 0.54403 13.8917 0.54403 5.5666C0.54403 2.31532 3.46281 0 7.89022 0C12.3423 0 15.4589 2.48771 15.4589 6.20697H12.6888C12.491 3.79303 10.7596 2.3645 7.81614 2.3645C4.87268 2.3645 3.24031 3.64523 3.24031 5.83734C3.24031 10.9606 15.7066 5.83734 15.7066 13.99C15.7066 17.4383 12.9363 20 7.98953 20C3.21562 20 0 17.4877 0 13.2021Z" fill="#00FF00"/>
<path d="M18.4517 18.1035C18.4517 17.1183 19.2185 16.3548 20.2324 16.3548C21.2464 16.3548 22.0132 17.1183 22.0132 18.1035C22.0132 19.1132 21.197 19.9016 20.2324 19.9016C19.2182 19.9016 18.4517 19.1135 18.4517 18.1035Z" fill="#00FF00"/>
<path d="M25.5996 0.393951H28.1719V19.6058H25.5996V0.393951Z" fill="#00FF00"/>
<path d="M39.4265 0.393951H42.5924L51.2001 19.6058H48.3557L46.179 14.7041H35.8646L33.6633 19.6058H30.8188L39.4265 0.393951ZM45.1153 12.2662L41.0095 3.0789L36.9283 12.2662H45.1153Z" fill="#00FF00"/>
</g>
<defs>
<clipPath id="clip0">
<rect width="51.2" height="20" fill="white"/>
</clipPath>
</defs>
</svg>
